<svg xmlns="http://www.w3.org/2000/svg" width="900" height="500" viewBox="0 0 900 500">
<rect width="100%" height="100%" fill="white"/>
<style>text{font-family:Arial,Helvetica,sans-serif;fill:#1f2937}.axis{stroke:#6b7280;stroke-width:1}.grid{stroke:#e5e7eb;stroke-width:1}.bar{fill:#4c78a8}</style>
<text x="450.0" y="32" text-anchor="middle" font-size="20" font-weight="600">Chronological holdout performance (2022–2024)</text>
<line class="grid" x1="90" y1="410.0" x2="870" y2="410.0"/>
<text x="80" y="414.0" text-anchor="end" font-size="11">0</text>
<line class="grid" x1="90" y1="341.0" x2="870" y2="341.0"/>
<text x="80" y="345.0" text-anchor="end" font-size="11">27</text>
<line class="grid" x1="90" y1="272.0" x2="870" y2="272.0"/>
<text x="80" y="276.0" text-anchor="end" font-size="11">54</text>
<line class="grid" x1="90" y1="203.0" x2="870" y2="203.0"/>
<text x="80" y="207.0" text-anchor="end" font-size="11">81</text>
<line class="grid" x1="90" y1="134.0" x2="870" y2="134.0"/>
<text x="80" y="138.0" text-anchor="end" font-size="11">108</text>
<line class="grid" x1="90" y1="65.0" x2="870" y2="65.0"/>
<text x="80" y="69.0" text-anchor="end" font-size="11">135</text>
<line class="axis" x1="90" y1="410" x2="870" y2="410"/>
<line class="axis" x1="90" y1="65" x2="90" y2="410"/>
<text transform="translate(22 237.5) rotate(-90)" text-anchor="middle" font-size="12">Total return (%)</text>
<rect class="bar" x="127.5" y="117.6" width="120.0" height="292.4" rx="2"/>
<text x="187.5" y="109.6" text-anchor="middle" font-size="12" font-weight="600">114.4%</text>
<text x="187.5" y="436" text-anchor="middle" font-size="12">PPO</text>
<rect class="bar" x="322.5" y="243.3" width="120.0" height="166.7" rx="2"/>
<text x="382.5" y="235.3" text-anchor="middle" font-size="12" font-weight="600">65.2%</text>
<text x="382.5" y="436" text-anchor="middle" font-size="12">Equal Weight</text>
<rect class="bar" x="517.5" y="215.2" width="120.0" height="194.8" rx="2"/>
<text x="577.5" y="207.2" text-anchor="middle" font-size="12" font-weight="600">76.2%</text>
<text x="577.5" y="436" text-anchor="middle" font-size="12">MVO</text>
<rect class="bar" x="712.5" y="215.7" width="120.0" height="194.3" rx="2"/>
<text x="772.5" y="207.7" text-anchor="middle" font-size="12" font-weight="600">76.0%</text>
<text x="772.5" y="436" text-anchor="middle" font-size="12">Random Allocation</text>
</svg>